<mxfile host="app.diagrams.net" modified="2024-04-11T08:24:04.518Z" agent="Mozilla/5.0 (Windows NT 10.0; Win64; x64) AppleWebKit/537.36 (KHTML, like Gecko) Chrome/123.0.0.0 Safari/537.36" etag="sFfdvBrdFW9bfpoV1g2o" version="24.2.3" type="github">
  <diagram name="Strona-1" id="N2XcbzdrWm_s1XVfRTgb">
    <mxGraphModel dx="395" dy="656" grid="1" gridSize="10" guides="1" tooltips="1" connect="1" arrows="1" fold="1" page="1" pageScale="1" pageWidth="827" pageHeight="1169" math="0" shadow="0">
      <root>
        <mxCell id="0" />
        <mxCell id="1" parent="0" />
        <mxCell id="hTsci48-kpNq4JtqRg5L-11" style="edgeStyle=orthogonalEdgeStyle;rounded=0;orthogonalLoop=1;jettySize=auto;html=1;entryX=0.5;entryY=1;entryDx=0;entryDy=0;endArrow=ERoneToMany;endFill=0;startArrow=ERmandOne;startFill=0;" edge="1" parent="1" source="hTsci48-kpNq4JtqRg5L-1" target="hTsci48-kpNq4JtqRg5L-3">
          <mxGeometry relative="1" as="geometry" />
        </mxCell>
        <mxCell id="hTsci48-kpNq4JtqRg5L-1" value="Kontener" style="whiteSpace=wrap;html=1;align=center;" vertex="1" parent="1">
          <mxGeometry x="414" y="390" width="100" height="40" as="geometry" />
        </mxCell>
        <mxCell id="hTsci48-kpNq4JtqRg5L-6" style="edgeStyle=orthogonalEdgeStyle;rounded=0;orthogonalLoop=1;jettySize=auto;html=1;entryX=0;entryY=0.5;entryDx=0;entryDy=0;endArrow=ERzeroToMany;endFill=0;startArrow=ERmandOne;startFill=0;" edge="1" parent="1" source="hTsci48-kpNq4JtqRg5L-2" target="hTsci48-kpNq4JtqRg5L-3">
          <mxGeometry relative="1" as="geometry" />
        </mxCell>
        <mxCell id="hTsci48-kpNq4JtqRg5L-2" value="Zamówienie" style="whiteSpace=wrap;html=1;align=center;" vertex="1" parent="1">
          <mxGeometry x="150" y="240" width="100" height="40" as="geometry" />
        </mxCell>
        <mxCell id="hTsci48-kpNq4JtqRg5L-3" value="Pozycja" style="whiteSpace=wrap;html=1;align=center;" vertex="1" parent="1">
          <mxGeometry x="414" y="240" width="100" height="40" as="geometry" />
        </mxCell>
        <mxCell id="hTsci48-kpNq4JtqRg5L-17" style="edgeStyle=orthogonalEdgeStyle;rounded=0;orthogonalLoop=1;jettySize=auto;html=1;entryX=0.5;entryY=1;entryDx=0;entryDy=0;startArrow=ERoneToMany;startFill=0;endArrow=ERoneToMany;endFill=0;" edge="1" parent="1" source="hTsci48-kpNq4JtqRg5L-4" target="hTsci48-kpNq4JtqRg5L-12">
          <mxGeometry relative="1" as="geometry" />
        </mxCell>
        <mxCell id="hTsci48-kpNq4JtqRg5L-19" value="opisuje" style="edgeLabel;html=1;align=center;verticalAlign=middle;resizable=0;points=[];" vertex="1" connectable="0" parent="hTsci48-kpNq4JtqRg5L-17">
          <mxGeometry x="0.4521" relative="1" as="geometry">
            <mxPoint as="offset" />
          </mxGeometry>
        </mxCell>
        <mxCell id="hTsci48-kpNq4JtqRg5L-4" value="Kubek" style="whiteSpace=wrap;html=1;align=center;" vertex="1" parent="1">
          <mxGeometry x="514" y="480" width="100" height="40" as="geometry" />
        </mxCell>
        <mxCell id="hTsci48-kpNq4JtqRg5L-5" value="rożek" style="whiteSpace=wrap;html=1;align=center;" vertex="1" parent="1">
          <mxGeometry x="314" y="480" width="100" height="40" as="geometry" />
        </mxCell>
        <mxCell id="hTsci48-kpNq4JtqRg5L-10" value="zawiera" style="text;html=1;align=center;verticalAlign=middle;resizable=0;points=[];autosize=1;strokeColor=none;fillColor=none;" vertex="1" parent="1">
          <mxGeometry x="290" y="238" width="60" height="30" as="geometry" />
        </mxCell>
        <mxCell id="hTsci48-kpNq4JtqRg5L-12" value="Kolor" style="whiteSpace=wrap;html=1;align=center;" vertex="1" parent="1">
          <mxGeometry x="650" y="380" width="100" height="40" as="geometry" />
        </mxCell>
        <mxCell id="hTsci48-kpNq4JtqRg5L-14" style="edgeStyle=orthogonalEdgeStyle;rounded=0;orthogonalLoop=1;jettySize=auto;html=1;entryX=0.441;entryY=-0.093;entryDx=0;entryDy=0;entryPerimeter=0;startArrow=block;startFill=0;endArrow=none;endFill=0;exitX=0.539;exitY=1.014;exitDx=0;exitDy=0;exitPerimeter=0;" edge="1" parent="1" source="hTsci48-kpNq4JtqRg5L-1" target="hTsci48-kpNq4JtqRg5L-5">
          <mxGeometry relative="1" as="geometry">
            <mxPoint x="546.5285714285714" y="460" as="sourcePoint" />
            <mxPoint x="450" y="508.5200000000001" as="targetPoint" />
          </mxGeometry>
        </mxCell>
        <mxCell id="hTsci48-kpNq4JtqRg5L-15" value="wskazuje" style="text;html=1;align=center;verticalAlign=middle;resizable=0;points=[];autosize=1;strokeColor=none;fillColor=none;" vertex="1" parent="1">
          <mxGeometry x="425" y="318" width="70" height="30" as="geometry" />
        </mxCell>
      </root>
    </mxGraphModel>
  </diagram>
</mxfile>
